STARTFONT 2.1
COMMENT
COMMENT Converted from OpenType font "Teletactile-3zavL.ttf" by "otf2bdf 3.0".
COMMENT
FONT -FreeType-Teletactile-Medium-R-Normal--17-120-100-100-P-105-ISO10646-1
SIZE 12 100 100
FONTBOUNDINGBOX 13 15 0 -2
STARTPROPERTIES 19
FOUNDRY "FreeType"
FAMILY_NAME "Teletactile"
WEIGHT_NAME "Medium"
SLANT "R"
SETWIDTH_NAME "Normal"
ADD_STYLE_NAME ""
PIXEL_SIZE 17
POINT_SIZE 120
RESOLUTION_X 100
RESOLUTION_Y 100
SPACING "P"
AVERAGE_WIDTH 105
CHARSET_REGISTRY "ISO10646"
CHARSET_ENCODING "1"
FONT_ASCENT 12
FONT_DESCENT 2
COPYRIGHT "Copyright (c) 2020, Heaven Castro."
_OTF_FONTFILE "Teletactile-3zavL.ttf"
_OTF_PSNAME "Teletactile"
ENDPROPERTIES
CHARS 109
STARTCHAR 0020
ENCODING 32
SWIDTH 840 0
DWIDTH 14 0
BBX 0 0 0 0
BITMAP
ENDCHAR
STARTCHAR 0021
ENCODING 33
SWIDTH 840 0
DWIDTH 14 0
BBX 2 13 5 0
BITMAP
C0
C0
C0
C0
C0
C0
C0
C0
C0
00
00
C0
C0
ENDCHAR
STARTCHAR 0022
ENCODING 34
SWIDTH 840 0
DWIDTH 14 0
BBX 7 4 3 9
BITMAP
C6
C6
C6
C6
ENDCHAR
STARTCHAR 0023
ENCODING 35
SWIDTH 840 0
DWIDTH 14 0
BBX 12 13 1 0
BITMAP
30C0
30C0
30C0
FFF0
FFF0
30C0
30C0
30C0
FFF0
FFF0
30C0
30C0
30C0
ENDCHAR
STARTCHAR 0024
ENCODING 36
SWIDTH 840 0
DWIDTH 14 0
BBX 11 15 1 -2
BITMAP
0C00
0C00
1F80
7FC0
E0E0
E000
6000
1F80
1FC0
00E0
E0E0
7FC0
1F80
0C00
0C00
ENDCHAR
STARTCHAR 0025
ENCODING 37
SWIDTH 840 0
DWIDTH 14 0
BBX 13 13 0 0
BITMAP
3818
7C78
EE70
C660
C780
6F80
3FE0
3FF0
1F78
3E18
7778
E1F0
C0E0
ENDCHAR
STARTCHAR 0026
ENCODING 38
SWIDTH 840 0
DWIDTH 14 0
BBX 12 13 1 0
BITMAP
3B00
7B00
E300
C300
C300
6300
7FF0
7FF0
E300
C300
E780
7FF0
3C70
ENDCHAR
STARTCHAR 0027
ENCODING 39
SWIDTH 840 0
DWIDTH 14 0
BBX 2 4 5 9
BITMAP
C0
C0
C0
C0
ENDCHAR
STARTCHAR 0028
ENCODING 40
SWIDTH 840 0
DWIDTH 14 0
BBX 4 13 4 0
BITMAP
30
70
E0
C0
C0
C0
C0
C0
C0
C0
E0
70
30
ENDCHAR
STARTCHAR 0029
ENCODING 41
SWIDTH 840 0
DWIDTH 14 0
BBX 4 13 4 0
BITMAP
C0
E0
70
30
30
30
30
30
30
30
70
E0
C0
ENDCHAR
STARTCHAR 002A
ENCODING 42
SWIDTH 840 0
DWIDTH 14 0
BBX 11 13 1 0
BITMAP
0C00
CC60
EDE0
7FC0
3F00
1E00
1E00
1E00
3F00
7FC0
EDE0
CC60
0C00
ENDCHAR
STARTCHAR 002B
ENCODING 43
SWIDTH 840 0
DWIDTH 14 0
BBX 9 9 2 2
BITMAP
1800
1800
1800
1800
FF80
FF80
1800
1800
1800
ENDCHAR
STARTCHAR 002C
ENCODING 44
SWIDTH 840 0
DWIDTH 14 0
BBX 4 4 3 -2
BITMAP
30
70
E0
C0
ENDCHAR
STARTCHAR 002D
ENCODING 45
SWIDTH 840 0
DWIDTH 14 0
BBX 9 2 2 5
BITMAP
FF80
FF80
ENDCHAR
STARTCHAR 002E
ENCODING 46
SWIDTH 840 0
DWIDTH 14 0
BBX 2 2 5 0
BITMAP
C0
C0
ENDCHAR
STARTCHAR 002F
ENCODING 47
SWIDTH 840 0
DWIDTH 14 0
BBX 13 13 0 0
BITMAP
0018
0038
0070
00E0
01C0
0100
0600
0C00
1C00
3800
7000
E000
C000
ENDCHAR
STARTCHAR 0030
ENCODING 48
SWIDTH 840 0
DWIDTH 14 0
BBX 12 13 1 0
BITMAP
3F80
7FE0
E0F0
C030
C030
C030
C030
C030
C030
C030
E0F0
7FE0
3F80
ENDCHAR
STARTCHAR 0031
ENCODING 49
SWIDTH 840 0
DWIDTH 14 0
BBX 6 13 3 0
BITMAP
30
70
F0
30
30
30
30
30
30
30
30
FC
FC
ENDCHAR
STARTCHAR 0032
ENCODING 50
SWIDTH 840 0
DWIDTH 14 0
BBX 12 13 1 0
BITMAP
1FC0
7FF0
F070
C030
0030
0070
7FC0
7FC0
F000
C000
C000
FFF0
FFF0
ENDCHAR
STARTCHAR 0033
ENCODING 51
SWIDTH 840 0
DWIDTH 14 0
BBX 12 13 1 0
BITMAP
3F80
7FE0
E0F0
C030
0030
00E0
3FE0
3FE0
00F0
C030
E0F0
7FE0
3F80
ENDCHAR
STARTCHAR 0034
ENCODING 52
SWIDTH 840 0
DWIDTH 14 0
BBX 12 13 1 0
BITMAP
07C0
0FC0
1CC0
38C0
70C0
60C0
E0C0
FFF0
FFF0
00C0
00C0
00C0
00C0
ENDCHAR
STARTCHAR 0035
ENCODING 53
SWIDTH 840 0
DWIDTH 14 0
BBX 12 13 1 0
BITMAP
FFF0
FFF0
C000
C000
FF80
FFE0
00E0
0030
0030
C030
E0F0
7FE0
3F80
ENDCHAR
STARTCHAR 0036
ENCODING 54
SWIDTH 840 0
DWIDTH 14 0
BBX 12 13 1 0
BITMAP
3FE0
7FF0
E030
C000
FF80
FFE0
E0E0
C030
C030
C030
E0F0
7FE0
3F80
ENDCHAR
STARTCHAR 0037
ENCODING 55
SWIDTH 840 0
DWIDTH 14 0
BBX 12 13 1 0
BITMAP
FFF0
FFF0
C070
00E0
01C0
0700
0F00
0C00
0C00
0C00
0C00
0C00
0C00
ENDCHAR
STARTCHAR 0038
ENCODING 56
SWIDTH 840 0
DWIDTH 14 0
BBX 12 13 1 0
BITMAP
3F80
7FE0
E0F0
C030
C030
60E0
7FE0
7FE0
E0F0
C030
E0F0
7FE0
3F80
ENDCHAR
STARTCHAR 0039
ENCODING 57
SWIDTH 840 0
DWIDTH 14 0
BBX 12 13 1 0
BITMAP
1FC0
7FE0
F070
C030
C030
C030
7070
7FF0
3FF0
0030
C070
FFE0
7FC0
ENDCHAR
STARTCHAR 003A
ENCODING 58
SWIDTH 840 0
DWIDTH 14 0
BBX 2 9 5 2
BITMAP
C0
C0
00
00
00
00
00
C0
C0
ENDCHAR
STARTCHAR 003B
ENCODING 59
SWIDTH 840 0
DWIDTH 14 0
BBX 4 11 3 -2
BITMAP
30
30
00
00
00
00
00
30
70
E0
C0
ENDCHAR
STARTCHAR 003C
ENCODING 60
SWIDTH 840 0
DWIDTH 14 0
BBX 6 12 3 0
BITMAP
0C
1C
38
30
60
C0
C0
E0
70
38
1C
0C
ENDCHAR
STARTCHAR 003D
ENCODING 61
SWIDTH 840 0
DWIDTH 14 0
BBX 9 6 2 3
BITMAP
FF80
FF80
0000
0000
FF80
FF80
ENDCHAR
STARTCHAR 003E
ENCODING 62
SWIDTH 840 0
DWIDTH 14 0
BBX 6 12 3 0
BITMAP
C0
E0
70
30
18
0C
0C
1C
38
70
E0
C0
ENDCHAR
STARTCHAR 003F
ENCODING 63
SWIDTH 840 0
DWIDTH 14 0
BBX 12 13 1 0
BITMAP
3F80
7FE0
E0F0
C030
0030
0030
00E0
0FE0
0F80
0000
0000
0C00
0C00
ENDCHAR
STARTCHAR 0040
ENCODING 64
SWIDTH 840 0
DWIDTH 14 0
BBX 12 13 1 0
BITMAP
3F80
7FE0
E070
CFF0
DC70
D870
D870
CC70
CFF0
C000
E030
7FF0
3FE0
ENDCHAR
STARTCHAR 0041
ENCODING 65
SWIDTH 840 0
DWIDTH 14 0
BBX 12 13 1 0
BITMAP
0E00
1F00
39C0
70E0
E0F0
C030
C030
FFF0
FFF0
C030
C030
C030
C030
ENDCHAR
STARTCHAR 0042
ENCODING 66
SWIDTH 840 0
DWIDTH 14 0
BBX 12 13 1 0
BITMAP
FFC0
FFE0
C070
C030
C030
C060
FFE0
FFE0
C070
C030
C070
FFE0
FFC0
ENDCHAR
STARTCHAR 0043
ENCODING 67
SWIDTH 840 0
DWIDTH 14 0
BBX 12 13 1 0
BITMAP
3F80
7FE0
E0F0
C030
C000
C000
C000
C000
C000
C030
E0F0
7FE0
3F80
ENDCHAR
STARTCHAR 0044
ENCODING 68
SWIDTH 840 0
DWIDTH 14 0
BBX 12 13 1 0
BITMAP
FFC0
FFE0
C070
C030
C030
C030
C030
C030
C030
C030
C070
FFE0
FFC0
ENDCHAR
STARTCHAR 0045
ENCODING 69
SWIDTH 840 0
DWIDTH 14 0
BBX 12 13 1 0
BITMAP
FFF0
FFF0
C000
C000
C000
C000
FFC0
FFC0
C000
C000
C000
FFF0
FFF0
ENDCHAR
STARTCHAR 0046
ENCODING 70
SWIDTH 840 0
DWIDTH 14 0
BBX 12 13 1 0
BITMAP
FFF0
FFF0
C000
C000
C000
C000
FFC0
FFC0
C000
C000
C000
C000
C000
ENDCHAR
STARTCHAR 0047
ENCODING 71
SWIDTH 840 0
DWIDTH 14 0
BBX 12 13 1 0
BITMAP
3FE0
7FF0
E030
C000
C000
C000
CFF0
CFF0
C030
C030
E0F0
7FE0
3F80
ENDCHAR
STARTCHAR 0048
ENCODING 72
SWIDTH 840 0
DWIDTH 14 0
BBX 12 13 1 0
BITMAP
C030
C030
C030
C030
C030
C030
FFF0
FFF0
C030
C030
C030
C030
C030
ENDCHAR
STARTCHAR 0049
ENCODING 73
SWIDTH 840 0
DWIDTH 14 0
BBX 6 13 3 0
BITMAP
FC
FC
30
30
30
30
30
30
30
30
30
FC
FC
ENDCHAR
STARTCHAR 004A
ENCODING 74
SWIDTH 840 0
DWIDTH 14 0
BBX 12 13 1 0
BITMAP
01F0
01F0
0030
0030
0030
0030
0030
0030
C030
C030
E0F0
7FE0
3F80
ENDCHAR
STARTCHAR 004B
ENCODING 75
SWIDTH 840 0
DWIDTH 14 0
BBX 12 13 1 0
BITMAP
C030
C0F0
C0E0
C1C0
C100
C600
CE00
DE00
FF00
F1C0
E0E0
C0F0
C030
ENDCHAR
STARTCHAR 004C
ENCODING 76
SWIDTH 840 0
DWIDTH 14 0
BBX 12 13 1 0
BITMAP
C000
C000
C000
C000
C000
C000
C000
C000
C000
C030
C030
FFF0
FFF0
ENDCHAR
STARTCHAR 004D
ENCODING 77
SWIDTH 840 0
DWIDTH 14 0
BBX 12 13 1 0
BITMAP
C030
E0F0
F1F0
FBF0
DF30
CE30
C430
C030
C030
C030
C030
C030
C030
ENDCHAR
STARTCHAR 004E
ENCODING 78
SWIDTH 840 0
DWIDTH 14 0
BBX 12 13 1 0
BITMAP
C030
E030
F030
F830
DC30
CC30
C630
C330
C3F0
C1F0
C0F0
C030
C030
ENDCHAR
STARTCHAR 004F
ENCODING 79
SWIDTH 840 0
DWIDTH 14 0
BBX 12 13 1 0
BITMAP
3F80
7FE0
E0F0
C030
C030
C030
C030
C030
C030
C030
E0F0
7FE0
3F80
ENDCHAR
STARTCHAR 0050
ENCODING 80
SWIDTH 840 0
DWIDTH 14 0
BBX 12 13 1 0
BITMAP
FFC0
FFE0
C070
C030
C030
C030
C060
FFE0
FFC0
C000
C000
C000
C000
ENDCHAR
STARTCHAR 0051
ENCODING 81
SWIDTH 840 0
DWIDTH 14 0
BBX 12 13 1 0
BITMAP
3F80
7FE0
E0F0
C030
C030
C030
C030
C630
C730
C3F0
E1F0
7FF0
3FF0
ENDCHAR
STARTCHAR 0052
ENCODING 82
SWIDTH 840 0
DWIDTH 14 0
BBX 12 13 1 0
BITMAP
FFC0
FFE0
C070
C030
C030
C070
C060
FFE0
FFC0
C1C0
C0E0
C070
C030
ENDCHAR
STARTCHAR 0053
ENCODING 83
SWIDTH 840 0
DWIDTH 14 0
BBX 12 13 1 0
BITMAP
1FC0
7FF0
F070
C030
C000
7000
1FC0
1FF0
0070
C030
F070
7FF0
1FC0
ENDCHAR
STARTCHAR 0054
ENCODING 84
SWIDTH 840 0
DWIDTH 14 0
BBX 11 13 1 0
BITMAP
FFE0
FFE0
0C00
0C00
0C00
0C00
0C00
0C00
0C00
0C00
0C00
0C00
0C00
ENDCHAR
STARTCHAR 0055
ENCODING 85
SWIDTH 840 0
DWIDTH 14 0
BBX 12 13 1 0
BITMAP
C030
C030
C030
C030
C030
C030
C030
C030
C030
C030
E0F0
7FE0
3F80
ENDCHAR
STARTCHAR 0056
ENCODING 86
SWIDTH 840 0
DWIDTH 14 0
BBX 12 13 1 0
BITMAP
C030
C030
C030
C030
C030
C030
C030
C030
E0F0
70E0
39C0
1F00
0E00
ENDCHAR
STARTCHAR 0057
ENCODING 87
SWIDTH 840 0
DWIDTH 14 0
BBX 12 13 1 0
BITMAP
C030
C030
C030
C030
C030
C030
C430
CE30
DF30
FBF0
F1F0
E0F0
C030
ENDCHAR
STARTCHAR 0058
ENCODING 88
SWIDTH 840 0
DWIDTH 14 0
BBX 12 13 1 0
BITMAP
C030
E0F0
70E0
39C0
1900
0E00
0E00
0E00
1F00
39C0
70E0
E0F0
C030
ENDCHAR
STARTCHAR 0059
ENCODING 89
SWIDTH 840 0
DWIDTH 14 0
BBX 11 13 1 0
BITMAP
C060
C060
C060
E1E0
71C0
3F00
1E00
0C00
0C00
0C00
0C00
0C00
0C00
ENDCHAR
STARTCHAR 005A
ENCODING 90
SWIDTH 840 0
DWIDTH 14 0
BBX 12 13 1 0
BITMAP
FFF0
FFF0
00E0
01C0
0700
0700
0C00
3800
3800
7000
E000
FFF0
FFF0
ENDCHAR
STARTCHAR 005B
ENCODING 91
SWIDTH 840 0
DWIDTH 14 0
BBX 5 13 4 0
BITMAP
F8
F8
C0
C0
C0
C0
C0
C0
C0
C0
C0
F8
F8
ENDCHAR
STARTCHAR 005C
ENCODING 92
SWIDTH 840 0
DWIDTH 14 0
BBX 13 13 0 0
BITMAP
C000
E000
7000
3800
1C00
0C00
0600
0100
01C0
00E0
0070
0038
0018
ENDCHAR
STARTCHAR 005D
ENCODING 93
SWIDTH 840 0
DWIDTH 14 0
BBX 4 13 4 0
BITMAP
F0
F0
30
30
30
30
30
30
30
30
30
F0
F0
ENDCHAR
STARTCHAR 005E
ENCODING 94
SWIDTH 840 0
DWIDTH 14 0
BBX 12 6 1 7
BITMAP
0E00
1F00
39C0
70E0
E0F0
C030
ENDCHAR
STARTCHAR 005F
ENCODING 95
SWIDTH 840 0
DWIDTH 14 0
BBX 12 2 1 -1
BITMAP
FFF0
FFF0
ENDCHAR
STARTCHAR 0061
ENCODING 97
SWIDTH 840 0
DWIDTH 14 0
BBX 12 13 1 0
BITMAP
0E00
1F00
39C0
70E0
E0F0
C030
C030
FFF0
FFF0
C030
C030
C030
C030
ENDCHAR
STARTCHAR 0062
ENCODING 98
SWIDTH 840 0
DWIDTH 14 0
BBX 12 13 1 0
BITMAP
FFC0
FFE0
C070
C030
C030
C060
FFE0
FFE0
C070
C030
C070
FFE0
FFC0
ENDCHAR
STARTCHAR 0063
ENCODING 99
SWIDTH 840 0
DWIDTH 14 0
BBX 12 13 1 0
BITMAP
3F80
7FE0
E0F0
C030
C000
C000
C000
C000
C000
C030
E0F0
7FE0
3F80
ENDCHAR
STARTCHAR 0064
ENCODING 100
SWIDTH 840 0
DWIDTH 14 0
BBX 12 13 1 0
BITMAP
FFC0
FFE0
C070
C030
C030
C030
C030
C030
C030
C030
C070
FFE0
FFC0
ENDCHAR
STARTCHAR 0065
ENCODING 101
SWIDTH 840 0
DWIDTH 14 0
BBX 12 13 1 0
BITMAP
FFF0
FFF0
C000
C000
C000
C000
FFC0
FFC0
C000
C000
C000
FFF0
FFF0
ENDCHAR
STARTCHAR 0066
ENCODING 102
SWIDTH 840 0
DWIDTH 14 0
BBX 12 13 1 0
BITMAP
FFF0
FFF0
C000
C000
C000
C000
FFC0
FFC0
C000
C000
C000
C000
C000
ENDCHAR
STARTCHAR 0067
ENCODING 103
SWIDTH 840 0
DWIDTH 14 0
BBX 12 13 1 0
BITMAP
3FE0
7FF0
E030
C000
C000
C000
CFF0
CFF0
C030
C030
E0F0
7FE0
3F80
ENDCHAR
STARTCHAR 0068
ENCODING 104
SWIDTH 840 0
DWIDTH 14 0
BBX 12 13 1 0
BITMAP
C030
C030
C030
C030
C030
C030
FFF0
FFF0
C030
C030
C030
C030
C030
ENDCHAR
STARTCHAR 0069
ENCODING 105
SWIDTH 840 0
DWIDTH 14 0
BBX 6 13 3 0
BITMAP
FC
FC
30
30
30
30
30
30
30
30
30
FC
FC
ENDCHAR
STARTCHAR 006A
ENCODING 106
SWIDTH 840 0
DWIDTH 14 0
BBX 12 13 1 0
BITMAP
01F0
01F0
0030
0030
0030
0030
0030
0030
C030
C030
E0F0
7FE0
3F80
ENDCHAR
STARTCHAR 006B
ENCODING 107
SWIDTH 840 0
DWIDTH 14 0
BBX 12 13 1 0
BITMAP
C030
C0F0
C0E0
C1C0
C100
C600
CE00
DE00
FF00
F1C0
E0E0
C0F0
C030
ENDCHAR
STARTCHAR 006C
ENCODING 108
SWIDTH 840 0
DWIDTH 14 0
BBX 12 13 1 0
BITMAP
C000
C000
C000
C000
C000
C000
C000
C000
C000
C030
C030
FFF0
FFF0
ENDCHAR
STARTCHAR 006D
ENCODING 109
SWIDTH 840 0
DWIDTH 14 0
BBX 12 13 1 0
BITMAP
C030
E0F0
F1F0
FBF0
DF30
CE30
C430
C030
C030
C030
C030
C030
C030
ENDCHAR
STARTCHAR 006E
ENCODING 110
SWIDTH 840 0
DWIDTH 14 0
BBX 12 13 1 0
BITMAP
C030
E030
F030
F830
DC30
CC30
C630
C330
C3F0
C1F0
C0F0
C030
C030
ENDCHAR
STARTCHAR 006F
ENCODING 111
SWIDTH 840 0
DWIDTH 14 0
BBX 12 13 1 0
BITMAP
3F80
7FE0
E0F0
C030
C030
C030
C030
C030
C030
C030
E0F0
7FE0
3F80
ENDCHAR
STARTCHAR 0070
ENCODING 112
SWIDTH 840 0
DWIDTH 14 0
BBX 12 13 1 0
BITMAP
FFC0
FFE0
C070
C030
C030
C030
C060
FFE0
FFC0
C000
C000
C000
C000
ENDCHAR
STARTCHAR 0071
ENCODING 113
SWIDTH 840 0
DWIDTH 14 0
BBX 12 13 1 0
BITMAP
3F80
7FE0
E0F0
C030
C030
C030
C030
C630
C730
C3F0
E1F0
7FF0
3FF0
ENDCHAR
STARTCHAR 0072
ENCODING 114
SWIDTH 840 0
DWIDTH 14 0
BBX 12 13 1 0
BITMAP
FFC0
FFE0
C070
C030
C030
C070
C060
FFE0
FFC0
C1C0
C0E0
C070
C030
ENDCHAR
STARTCHAR 0073
ENCODING 115
SWIDTH 840 0
DWIDTH 14 0
BBX 12 13 1 0
BITMAP
1FC0
7FF0
F070
C030
C000
7000
1FC0
1FF0
0070
C030
F070
7FF0
1FC0
ENDCHAR
STARTCHAR 0074
ENCODING 116
SWIDTH 840 0
DWIDTH 14 0
BBX 11 13 1 0
BITMAP
FFE0
FFE0
0C00
0C00
0C00
0C00
0C00
0C00
0C00
0C00
0C00
0C00
0C00
ENDCHAR
STARTCHAR 0075
ENCODING 117
SWIDTH 840 0
DWIDTH 14 0
BBX 12 13 1 0
BITMAP
C030
C030
C030
C030
C030
C030
C030
C030
C030
C030
E0F0
7FE0
3F80
ENDCHAR
STARTCHAR 0076
ENCODING 118
SWIDTH 840 0
DWIDTH 14 0
BBX 12 13 1 0
BITMAP
C030
C030
C030
C030
C030
C030
C030
C030
E0F0
70E0
39C0
1F00
0E00
ENDCHAR
STARTCHAR 0077
ENCODING 119
SWIDTH 840 0
DWIDTH 14 0
BBX 12 13 1 0
BITMAP
C030
C030
C030
C030
C030
C030
C430
CE30
DF30
FBF0
F1F0
E0F0
C030
ENDCHAR
STARTCHAR 0078
ENCODING 120
SWIDTH 840 0
DWIDTH 14 0
BBX 12 13 1 0
BITMAP
C030
E0F0
70E0
39C0
1900
0E00
0E00
0E00
1F00
39C0
70E0
E0F0
C030
ENDCHAR
STARTCHAR 0079
ENCODING 121
SWIDTH 840 0
DWIDTH 14 0
BBX 11 13 1 0
BITMAP
C060
C060
C060
E1E0
71C0
3F00
1E00
0C00
0C00
0C00
0C00
0C00
0C00
ENDCHAR
STARTCHAR 007A
ENCODING 122
SWIDTH 840 0
DWIDTH 14 0
BBX 12 13 1 0
BITMAP
FFF0
FFF0
00E0
01C0
0700
0700
0C00
3800
3800
7000
E000
FFF0
FFF0
ENDCHAR
STARTCHAR 007C
ENCODING 124
SWIDTH 840 0
DWIDTH 14 0
BBX 2 13 5 0
BITMAP
C0
C0
C0
C0
C0
C0
C0
C0
C0
C0
C0
C0
C0
ENDCHAR
STARTCHAR 007E
ENCODING 126
SWIDTH 840 0
DWIDTH 14 0
BBX 12 13 1 0
BITMAP
FFF0
FFF0
FFF0
FFF0
FFF0
FFF0
FFF0
FFF0
FFF0
FFF0
FFF0
FFF0
FFF0
ENDCHAR
STARTCHAR 00A1
ENCODING 161
SWIDTH 840 0
DWIDTH 14 0
BBX 2 13 5 0
BITMAP
C0
C0
00
00
C0
C0
C0
C0
C0
C0
C0
C0
C0
ENDCHAR
STARTCHAR 00A2
ENCODING 162
SWIDTH 840 0
DWIDTH 14 0
BBX 11 15 1 -2
BITMAP
0C00
0C00
3F00
7FC0
E1E0
C060
C000
C000
C000
C060
E1E0
7FC0
3F00
0C00
0C00
ENDCHAR
STARTCHAR 00A9
ENCODING 169
SWIDTH 840 0
DWIDTH 14 0
BBX 12 12 1 0
BITMAP
3F80
7FE0
E0F0
C130
DF30
DFF0
DFF0
DFF0
DF30
E0F0
7FE0
3F80
ENDCHAR
STARTCHAR 00AB
ENCODING 171
SWIDTH 840 0
DWIDTH 14 0
BBX 13 12 0 0
BITMAP
0C18
1C38
3870
3060
60C0
C300
C300
E3C0
70E0
3870
1C38
0C18
ENDCHAR
STARTCHAR 00AE
ENCODING 174
SWIDTH 840 0
DWIDTH 14 0
BBX 12 12 1 0
BITMAP
3F80
7FE0
C0F0
DF30
DF30
DF30
C030
C0F0
DF30
DF30
7FE0
3F80
ENDCHAR
STARTCHAR 00B0
ENCODING 176
SWIDTH 840 0
DWIDTH 14 0
BBX 7 8 3 5
BITMAP
38
7C
EE
C6
C6
6C
38
38
ENDCHAR
STARTCHAR 00B1
ENCODING 177
SWIDTH 840 0
DWIDTH 14 0
BBX 9 12 2 -1
BITMAP
1800
1800
1800
FF80
FF80
1800
1800
1800
1800
0000
FF80
FF80
ENDCHAR
STARTCHAR 00BB
ENCODING 187
SWIDTH 840 0
DWIDTH 14 0
BBX 13 12 0 0
BITMAP
C300
E3C0
70E0
3060
1830
0C18
0C18
1C38
3870
70E0
E3C0
C300
ENDCHAR
STARTCHAR 00BF
ENCODING 191
SWIDTH 840 0
DWIDTH 14 0
BBX 12 13 1 0
BITMAP
0600
0600
0000
0000
3E00
7E00
6000
C000
C000
C030
E0F0
7FE0
3F80
ENDCHAR
STARTCHAR 00D7
ENCODING 215
SWIDTH 840 0
DWIDTH 14 0
BBX 12 12 1 0
BITMAP
C030
E0F0
70E0
30C0
1900
0E00
0E00
1F00
39C0
70E0
E0F0
C030
ENDCHAR
STARTCHAR 00F7
ENCODING 247
SWIDTH 840 0
DWIDTH 14 0
BBX 9 11 2 1
BITMAP
1800
1800
0000
0000
0000
FF80
FF80
0000
0000
1800
1800
ENDCHAR
STARTCHAR 2018
ENCODING 8216
SWIDTH 840 0
DWIDTH 14 0
BBX 2 4 5 9
BITMAP
C0
C0
C0
C0
ENDCHAR
STARTCHAR 2019
ENCODING 8217
SWIDTH 840 0
DWIDTH 14 0
BBX 2 4 5 9
BITMAP
C0
C0
C0
C0
ENDCHAR
STARTCHAR 201C
ENCODING 8220
SWIDTH 840 0
DWIDTH 14 0
BBX 7 4 3 9
BITMAP
C6
C6
C6
C6
ENDCHAR
STARTCHAR 201D
ENCODING 8221
SWIDTH 840 0
DWIDTH 14 0
BBX 7 4 3 9
BITMAP
C6
C6
C6
C6
ENDCHAR
STARTCHAR 2022
ENCODING 8226
SWIDTH 840 0
DWIDTH 14 0
BBX 10 9 2 2
BITMAP
3E00
7F00
7F00
FFC0
FFC0
FFC0
FFC0
7F00
3E00
ENDCHAR
STARTCHAR 2026
ENCODING 8230
SWIDTH 840 0
DWIDTH 14 0
BBX 10 2 1 0
BITMAP
CCC0
CCC0
ENDCHAR
ENDFONT
